<svg width="32" height="32" viewBox="0 0 32 32" fill="none" xmlns="http://www.w3.org/2000/svg">
<g clip-path="url(#clip0_8_42)">
<rect width="32" height="32" rx="16" fill="url(#paint0_linear_8_42)"/>
<path fill-rule="evenodd" clip-rule="evenodd" d="M14.427 6.16533V7.33031L15.1594 7.04029C15.0546 6.80435 14.9776 6.5897 14.9284 6.39636C14.8793 6.20302 14.8432 5.96871 14.8203 5.69344L14.604 5.83599C14.5484 5.87204 14.505 5.91956 14.4738 5.97854C14.4426 6.03753 14.427 6.09979 14.427 6.16533ZM15.1988 6.2489C15.2545 6.49139 15.3397 6.72078 15.4544 6.93707H15.5945V19.8842L13.5853 21.8934L9.71953 18.0277L11.6498 16.0975V10.55H11.8267C11.9414 10.3273 12.0266 10.0954 12.0823 9.85452C12.138 9.6136 12.1659 9.36533 12.1659 9.10972C12.166 8.70023 12.085 8.31439 11.9227 7.95222C11.7604 7.59004 11.5465 7.31556 11.2811 7.12877C11.0158 7.31543 10.802 7.58985 10.6397 7.95202C10.4775 8.3142 10.3963 8.7001 10.3963 9.10972C10.3963 9.36861 10.4242 9.6193 10.4799 9.8618C10.5356 10.1043 10.6208 10.3337 10.7355 10.55H10.9124V15.792L9.19816 17.5063L6.93087 15.239V13.9417H7.10783C7.22253 13.719 7.30773 13.4872 7.36344 13.2462C7.41915 13.0053 7.447 12.757 7.447 12.5014C7.44713 12.0919 7.36606 11.7061 7.20378 11.3439C7.04151 10.9817 6.82765 10.7073 6.56221 10.5205C6.2969 10.7071 6.08311 10.9816 5.92083 11.3437C5.75856 11.7059 5.67742 12.0918 5.67742 12.5014C5.67742 12.7603 5.70527 13.011 5.76098 13.2535C5.81669 13.496 5.90189 13.7254 6.01659 13.9417H6.19355V15.5445L8.67679 18.0277L5.97235 20.7321V28.9586H6.70968V21.0375L9.19816 18.5491L12.8664 22.2173V22.6123L11.3548 24.1238V32H12.0922V24.4293L12.8664 23.6551V23.8394L16.0737 27.0468V35.9079H16.8111V26.7414L13.6037 23.534V22.9177L16.3318 20.1896V6.93707H16.5456C16.6603 6.71436 16.7455 6.48255 16.8012 6.24162C16.8569 6.00069 16.8848 5.75243 16.8848 5.49682C16.8849 5.08733 16.8039 4.70149 16.6416 4.33932C16.4793 3.97714 16.2654 3.70266 16 3.51587C15.7347 3.70253 15.5209 3.97694 15.3586 4.33912C15.1963 4.70129 15.1152 5.0872 15.1152 5.49682C15.1152 5.75571 15.1431 6.0064 15.1988 6.2489ZM16.2778 5.44511C16.2008 5.52219 16.1081 5.56072 16 5.56072C15.892 5.56085 15.7994 5.52238 15.7224 5.44531C15.6453 5.36823 15.6068 5.27562 15.6068 5.16748C15.6066 5.05947 15.6451 4.96693 15.7222 4.88985C15.7993 4.81278 15.8919 4.77424 16 4.77424C16.108 4.77411 16.2006 4.81258 16.2776 4.88966C16.3547 4.96673 16.3932 5.05934 16.3932 5.16748C16.3934 5.27549 16.3549 5.36804 16.2778 5.44511ZM16.8406 7.04029L17.573 7.33031V6.16533C17.5731 6.09979 17.5576 6.03753 17.5264 5.97854C17.4952 5.91956 17.4517 5.87204 17.396 5.83599L17.1797 5.69344C17.1568 5.96871 17.1207 6.20302 17.0716 6.39636C17.0224 6.5897 16.9454 6.80435 16.8406 7.04029ZM9.70814 10.9432V9.77823C9.70814 9.71269 9.72374 9.65043 9.75494 9.59145C9.78613 9.53246 9.82952 9.48494 9.8851 9.4489L10.1014 9.30635C10.1243 9.58161 10.1604 9.81592 10.2095 10.0093C10.2587 10.2026 10.3357 10.4173 10.4406 10.6532L9.70814 10.9432ZM11.2811 9.17363C11.3892 9.17363 11.4819 9.13509 11.5589 9.05801C11.636 8.98094 11.6745 8.8884 11.6743 8.78039C11.6743 8.67224 11.6358 8.57964 11.5587 8.50256C11.4817 8.42549 11.3891 8.38701 11.2811 8.38714C11.173 8.38714 11.0804 8.42568 11.0033 8.50276C10.9262 8.57983 10.8877 8.67238 10.8879 8.78039C10.8879 8.88853 10.9264 8.98113 11.0035 9.05821C11.0806 9.13529 11.1731 9.17376 11.2811 9.17363ZM12.8541 10.9432L12.1217 10.6532C12.2265 10.4173 12.3035 10.2026 12.3527 10.0093C12.4018 9.81592 12.4379 9.58161 12.4608 9.30635L12.6771 9.4489C12.7328 9.48494 12.7763 9.53246 12.8075 9.59145C12.8387 9.65043 12.8542 9.71269 12.8541 9.77823V10.9432ZM4.98925 14.3349V13.1699C4.98925 13.1044 5.00484 13.0421 5.03604 12.9832C5.06724 12.9242 5.11063 12.8766 5.1662 12.8406L5.38249 12.6981C5.40543 12.9733 5.44147 13.2076 5.49063 13.401C5.53978 13.5943 5.61679 13.809 5.72166 14.0449L4.98925 14.3349ZM6.56221 12.5653C6.67035 12.5653 6.76296 12.5268 6.84004 12.4497C6.91711 12.3726 6.95558 12.2801 6.95545 12.1721C6.95545 12.0639 6.91691 11.9713 6.83984 11.8943C6.76276 11.8172 6.67022 11.7787 6.56221 11.7788C6.45407 11.7788 6.36146 11.8174 6.28439 11.8945C6.20731 11.9715 6.16884 12.0641 6.16897 12.1721C6.16897 12.2802 6.20751 12.3728 6.28458 12.4499C6.36166 12.527 6.4542 12.5655 6.56221 12.5653ZM8.13518 14.3349L7.40276 14.0449C7.50763 13.809 7.58464 13.5943 7.63379 13.401C7.68295 13.2076 7.719 12.9733 7.74193 12.6981L7.95822 12.8406C8.01393 12.8766 8.05738 12.9242 8.08858 12.9832C8.11977 13.0421 8.13531 13.1044 8.13518 13.1699V14.3349ZM19.1459 10.9432V9.77824C19.1459 9.7127 19.1615 9.65043 19.1927 9.59145C19.2239 9.53246 19.2673 9.48494 19.3229 9.4489L19.5392 9.30635C19.5621 9.58161 19.5982 9.81592 19.6473 10.0093C19.6965 10.2026 19.7735 10.4173 19.8783 10.6532L19.1459 10.9432ZM20.1733 10.55C20.0586 10.3337 19.9734 10.1043 19.9177 9.8618C19.862 9.6193 19.8341 9.36861 19.8341 9.10972C19.8341 8.7001 19.9152 8.3142 20.0775 7.95202C20.2398 7.58985 20.4536 7.31543 20.7189 7.12877C20.9843 7.31556 21.1982 7.59004 21.3605 7.95222C21.5227 8.31439 21.6038 8.70023 21.6037 9.10972C21.6037 9.36533 21.5758 9.6136 21.5201 9.85452C21.4644 10.0954 21.3792 10.3273 21.2645 10.55H21.0876V15.792L23.0046 17.7091L25.0323 15.6814V14.1629H24.8922C24.7775 13.9466 24.6923 13.7172 24.6366 13.4747C24.5809 13.2322 24.553 12.9815 24.553 12.7226C24.553 12.313 24.6341 11.9271 24.7964 11.5649C24.9587 11.2028 25.1725 10.9283 25.4378 10.7417C25.7032 10.9285 25.9171 11.2029 26.0794 11.5651C26.2416 11.9273 26.3227 12.3131 26.3226 12.7226C26.3226 12.9782 26.2947 13.2265 26.239 13.4674C26.1833 13.7084 26.0981 13.9402 25.9834 14.1629H25.7696V15.9869L23.526 18.2305L26.0276 20.7321V29.3088H25.2903V21.0375L23.0046 18.7518L18.5069 23.2495V32.1844H17.7696V22.9441L22.4832 18.2305L20.3502 16.0975V10.55H20.1733ZM20.7189 9.17363C20.827 9.17363 20.9196 9.13509 20.9967 9.05801C21.0738 8.98094 21.1123 8.8884 21.1121 8.78039C21.1121 8.67224 21.0736 8.57964 20.9965 8.50256C20.9194 8.42549 20.8269 8.38701 20.7189 8.38714C20.6108 8.38714 20.5181 8.42568 20.4411 8.50276C20.364 8.57983 20.3255 8.67238 20.3257 8.78039C20.3257 8.88853 20.3642 8.98114 20.4413 9.05821C20.5183 9.13529 20.6109 9.17376 20.7189 9.17363ZM22.2919 10.9432L21.5594 10.6532C21.6643 10.4173 21.7413 10.2026 21.7905 10.0093C21.8396 9.81592 21.8757 9.58161 21.8986 9.30635L22.1149 9.4489C22.1706 9.48494 22.2141 9.53246 22.2453 9.59145C22.2765 9.65043 22.292 9.7127 22.2919 9.77824V10.9432ZM23.8648 13.3911V14.5561L24.5972 14.2661C24.4924 14.0302 24.4154 13.8155 24.3662 13.6222C24.3171 13.4288 24.281 13.1945 24.2581 12.9192L24.0418 13.0618C23.9862 13.0978 23.9428 13.1454 23.9116 13.2043C23.8804 13.2633 23.8648 13.3256 23.8648 13.3911ZM25.7156 12.6709C25.6385 12.748 25.5459 12.7865 25.4378 12.7865C25.3298 12.7867 25.2372 12.7482 25.1602 12.6711C25.0831 12.594 25.0445 12.5014 25.0445 12.3933C25.0444 12.2853 25.0829 12.1927 25.16 12.1157C25.237 12.0386 25.3296 12 25.4378 12C25.5458 11.9999 25.6383 12.0384 25.7154 12.1155C25.7925 12.1925 25.831 12.2851 25.831 12.3933C25.8312 12.5013 25.7927 12.5938 25.7156 12.6709ZM26.2783 14.2661L27.0108 14.5561V13.3911C27.0109 13.3256 26.9954 13.2633 26.9642 13.2043C26.933 13.1454 26.8895 13.0978 26.8338 13.0618L26.6175 12.9192C26.5946 13.1945 26.5585 13.4288 26.5094 13.6222C26.4602 13.8155 26.3832 14.0302 26.2783 14.2661Z" fill="white"/>
<path d="M0.0737343 19.8341H32V23.8894H0.0737343V19.8341Z" fill="white"/>
<path d="M11.0972 22.692C11.2191 22.7411 11.3488 22.7657 11.4865 22.7657C11.6418 22.7657 11.7775 22.7382 11.8935 22.6831C12.0114 22.6261 12.1039 22.5485 12.1707 22.4501C12.2376 22.3499 12.271 22.2358 12.271 22.108C12.271 21.9606 12.2267 21.8357 12.1383 21.7335C12.0518 21.6312 11.92 21.5516 11.7431 21.4946L11.3213 21.3589C11.2545 21.3373 11.2043 21.3078 11.1709 21.2704C11.1375 21.2311 11.1208 21.1859 11.1208 21.1348C11.1208 21.0876 11.1335 21.0463 11.1591 21.0109C11.1847 20.9735 11.221 20.945 11.2682 20.9254C11.3154 20.9057 11.3695 20.8959 11.4304 20.8959C11.5366 20.8959 11.631 20.9254 11.7136 20.9843C11.7961 21.0414 11.8581 21.121 11.8994 21.2232L12.271 21.0551C12.2297 20.9391 12.1678 20.8398 12.0852 20.7572C12.0046 20.6747 11.9082 20.6108 11.7961 20.5655C11.6841 20.5203 11.5622 20.4977 11.4304 20.4977C11.281 20.4977 11.1483 20.5252 11.0323 20.5803C10.9182 20.6353 10.8288 20.712 10.7639 20.8103C10.701 20.9086 10.6695 21.0227 10.6695 21.1524C10.6695 21.2999 10.7138 21.4267 10.8022 21.5329C10.8907 21.6371 11.0224 21.7177 11.1974 21.7748L11.628 21.9163C11.6949 21.9379 11.744 21.9674 11.7755 22.0048C11.807 22.0402 11.8227 22.0834 11.8227 22.1346C11.8227 22.1818 11.8099 22.223 11.7844 22.2584C11.7588 22.2919 11.7234 22.3184 11.6782 22.3381C11.633 22.3577 11.5789 22.3676 11.516 22.3676C11.398 22.3676 11.2899 22.3332 11.1915 22.2643C11.0952 22.1955 11.0195 22.1011 10.9644 21.9812L10.5899 22.1493C10.6331 22.2752 10.698 22.3843 10.7845 22.4767C10.873 22.5691 10.9772 22.6409 11.0972 22.692Z" fill="black"/>
<path d="M17.5723 22.7657C17.4347 22.7657 17.3049 22.7411 17.183 22.692C17.0631 22.6409 16.9588 22.5691 16.8704 22.4767C16.7839 22.3843 16.719 22.2752 16.6757 22.1493L17.0503 21.9812C17.1053 22.1011 17.181 22.1955 17.2774 22.2643C17.3757 22.3332 17.4838 22.3676 17.6018 22.3676C17.6647 22.3676 17.7188 22.3577 17.764 22.3381C17.8092 22.3184 17.8446 22.2919 17.8702 22.2584C17.8957 22.223 17.9085 22.1818 17.9085 22.1346C17.9085 22.0834 17.8928 22.0402 17.8613 22.0048C17.8299 21.9674 17.7807 21.9379 17.7139 21.9163L17.2833 21.7748C17.1083 21.7177 16.9765 21.6371 16.8881 21.5329C16.7996 21.4267 16.7553 21.2999 16.7553 21.1524C16.7553 21.0227 16.7868 20.9086 16.8497 20.8103C16.9146 20.712 17.0041 20.6353 17.1181 20.5803C17.2341 20.5252 17.3668 20.4977 17.5163 20.4977C17.648 20.4977 17.7699 20.5203 17.882 20.5655C17.9941 20.6108 18.0904 20.6747 18.171 20.7572C18.2536 20.8398 18.3155 20.9391 18.3568 21.0551L17.9852 21.2232C17.9439 21.121 17.882 21.0414 17.7994 20.9843C17.7168 20.9254 17.6224 20.8959 17.5163 20.8959C17.4553 20.8959 17.4012 20.9057 17.3541 20.9254C17.3069 20.945 17.2705 20.9735 17.2449 21.0109C17.2194 21.0463 17.2066 21.0876 17.2066 21.1348C17.2066 21.1859 17.2233 21.2311 17.2567 21.2704C17.2901 21.3078 17.3403 21.3373 17.4071 21.3589L17.8289 21.4946C18.0058 21.5516 18.1376 21.6312 18.2241 21.7335C18.3126 21.8357 18.3568 21.9606 18.3568 22.108C18.3568 22.2358 18.3234 22.3499 18.2565 22.4501C18.1897 22.5485 18.0973 22.6261 17.9793 22.6831C17.8633 22.7382 17.7276 22.7657 17.5723 22.7657Z" fill="black"/>
<path d="M18.4916 20.5331L19.0667 22.7303H19.5976L19.981 21.2557L20.3644 22.7303H20.8953L21.4704 20.5331H20.9749L20.606 22.0992L20.2169 20.5331H19.7451L19.356 22.0992L18.9871 20.5331H18.4916Z" fill="black"/>
<path fill-rule="evenodd" clip-rule="evenodd" d="M21.4179 22.7303L22.1611 20.5331H22.7686L23.5119 22.7303H23.0134L22.866 22.282H22.0608L21.9133 22.7303H21.4179ZM22.1876 21.8839H22.7392L22.4646 21.0361L22.1876 21.8839Z" fill="black"/>
<path fill-rule="evenodd" clip-rule="evenodd" d="M23.7402 22.7303V20.5331H24.5837C24.7351 20.5331 24.8688 20.5596 24.9848 20.6127C25.1028 20.6658 25.1952 20.7445 25.2621 20.8487C25.3289 20.9529 25.3623 21.0817 25.3623 21.235C25.3623 21.3845 25.3279 21.5113 25.2591 21.6155C25.1923 21.7197 25.0998 21.7993 24.9819 21.8544C24.8659 21.9075 24.7331 21.934 24.5837 21.934H24.1974V22.7303H23.7402ZM24.1974 21.5359H24.5867C24.6515 21.5359 24.7076 21.5231 24.7548 21.4975C24.802 21.472 24.8383 21.4366 24.8639 21.3913C24.8914 21.3461 24.9052 21.294 24.9052 21.235C24.9052 21.1741 24.8914 21.121 24.8639 21.0758C24.8383 21.0305 24.802 20.9951 24.7548 20.9696C24.7076 20.944 24.6515 20.9312 24.5867 20.9312H24.1974V21.5359Z" fill="black"/>
<path d="M14.8336 22.7303V23.1137H16.3083V22.7303H14.8336Z" fill="black"/>
<path d="M12.5968 22.7303V20.5331H13.0539V21.4828H13.9092V20.5331H14.3664V22.7303H13.9092V21.8809H13.0539V22.7303H12.5968Z" fill="black"/>
<path d="M9.42599 22.7657C9.25297 22.7657 9.09862 22.7293 8.96295 22.6566C8.82728 22.5838 8.72013 22.4846 8.64148 22.3587C8.5648 22.2309 8.52645 22.0864 8.52645 21.9252V20.5331H8.9836V21.8957C8.9836 21.9822 9.00228 22.0608 9.03963 22.1316C9.07896 22.2004 9.13205 22.2545 9.1989 22.2938C9.26575 22.3332 9.34145 22.3528 9.42599 22.3528C9.51251 22.3528 9.58821 22.3332 9.65309 22.2938C9.71994 22.2545 9.77205 22.2004 9.8094 22.1316C9.84873 22.0608 9.86839 21.9822 9.86839 21.8957V20.5331H10.3255V21.9252C10.3255 22.0864 10.2862 22.2309 10.2076 22.3587C10.1309 22.4846 10.0247 22.5838 9.88904 22.6566C9.75337 22.7293 9.59902 22.7657 9.42599 22.7657Z" fill="black"/>
<path fill-rule="evenodd" clip-rule="evenodd" d="M6.63767 20.5331V22.7303H7.09482V21.934H7.48118C7.63061 21.934 7.76333 21.9075 7.87933 21.8544C7.99731 21.7993 8.08972 21.7197 8.15657 21.6155C8.22539 21.5113 8.25979 21.3845 8.25979 21.235C8.25979 21.0817 8.22637 20.9529 8.15952 20.8487C8.09267 20.7445 8.00026 20.6658 7.88228 20.6127C7.76628 20.5596 7.63257 20.5331 7.48118 20.5331H6.63767ZM7.48413 21.5359H7.09482V20.9312H7.48413C7.54901 20.9312 7.60505 20.944 7.65224 20.9696C7.69943 20.9951 7.7358 21.0305 7.76136 21.0758C7.78889 21.121 7.80265 21.1741 7.80265 21.235C7.80265 21.294 7.78889 21.3461 7.76136 21.3913C7.7358 21.4366 7.69943 21.472 7.65224 21.4975C7.60505 21.5231 7.54901 21.5359 7.48413 21.5359Z" fill="black"/>
</g>
<defs>
<linearGradient id="paint0_linear_8_42" x1="16" y1="0" x2="16" y2="32" gradientUnits="userSpaceOnUse">
<stop stop-color="#15041B"/>
<stop offset="1" stop-color="#000E24"/>
</linearGradient>
<clipPath id="clip0_8_42">
<rect width="32" height="32" rx="16" fill="white"/>
</clipPath>
</defs>
</svg>
